<?xml version="1.0" encoding="ISO-8859-1" standalone="yes"?>
<svg width="225" height="226.5" xmlns="http://www.w3.org/2000/svg">
  <defs> 
	<marker id="ArrowEnd" viewBox="0 0 10 10" refX="0" refY="5" 
		markerUnits="strokeWidth" 
		markerWidth="4" 
		markerHeight="3" 
		orient="auto"> 
		<path d="M 0 0 L 10 5 L 0 10 z" /> 
	</marker>
	<marker id="ArrowStart" viewBox="0 0 10 10" refX="10" refY="5" 
		markerUnits="strokeWidth" 
		markerWidth="4" 
		markerHeight="3" 
		orient="auto"> 
		<path d="M 10 0 L 0 5 L 10 10 z" /> 
	</marker> </defs>
<g>
<path style="stroke:none; fill:#000000" d="M 163.9 139.9C 163.4 139.4 162.9 139 162.3 138.6C 161.2 138.1 160.1 137.6 158.9 137.2C 158 136.8 157 136.5 156 136.2C 154.9 136.1 153.8 135.9 152.7 135.8C 151.5 135.8 150.3 135.9 149.2 136C 148.1 136.2 147 136.5 145.9 136.8C 144.8 137.1 143.8 137.5 142.8 137.9C 141.9 138.5 141.1 139 140.3 139.7C 139.6 140.3 138.9 140.9 138.3 141.7C 137.6 142.7 136.8 143.7 136.2 144.9C 135.8 145.5 135.5 146.2 135.2 147L 133.7 147C 133.3 146 133 145 132.5 144C 132.3 143.7 132.2 143.5 132 143.2C 131.8 143 131.6 142.7 131.3 142.4C 131.3 142.4 131.2 142.3 131.2 142.2C 130.7 141.6 130.2 141 129.8 140.4C 128.1 139 126.2 137.7 124.3 136.7C 123.1 135.9 121.7 135.5 120.3 135.4C 118.7 135.1 117.1 135.2 115.6 135.6C 112.5 136.3 109.6 137.4 106.8 138.8C 105.7 139.4 104.8 140.2 104 141.3C 103.4 142.2 102.9 143.1 102.5 144.2C 102.4 144.6 102.3 145.1 102.3 145.6L 129.1 150.6L 116.9 150.6L 116.9 156.1L 99.2 156.1C 93.1 156.7 87 158.2 81.1 160.6L 71.2 164.6L 62 170.8C 59.2 172.7 56.8 175 54.6 177.5C 52.8 179.7 51.1 182.1 49.6 184.6C 48.5 186.4 47.7 188.2 47.2 190.3L 44.2 202.3L 44.3 206L 68.8 206C 70.3 202.3 71.7 199.7 72.9 198.2C 75.4 195.1 78.5 192.3 82.3 189.6C 86 187 91.4 185.1 98.4 184.1C 104.4 183.2 111.2 183.3 118.6 184.3L 118.9 208.3L 154.8 208.3L 154.8 150.5L 142.7 150.5L 166.4 145.7C 166.8 144.4 166.8 143.4 166.4 142.7C 165.6 141.7 164.8 140.8 163.9 139.9z"/>
</g>
<g>
<path style="stroke:#000000; stroke-width:4.0; stroke-linejoin:round; stroke-linecap:round; fill:none" d="M 220 118.5C 149 118.5 78 118.5 7 118.5L 7 224.5L 220 224.5L 220 118.5"/>
</g>
</svg>
