<?xml version="1.0" encoding="ISO-8859-1" standalone="yes"?>
<svg width="217" height="110" xmlns="http://www.w3.org/2000/svg">
  <defs> 
	<marker id="ArrowEnd" viewBox="0 0 10 10" refX="0" refY="5" 
		markerUnits="strokeWidth" 
		markerWidth="4" 
		markerHeight="3" 
		orient="auto"> 
		<path d="M 0 0 L 10 5 L 0 10 z" /> 
	</marker>
	<marker id="ArrowStart" viewBox="0 0 10 10" refX="10" refY="5" 
		markerUnits="strokeWidth" 
		markerWidth="4" 
		markerHeight="3" 
		orient="auto"> 
		<path d="M 10 0 L 0 5 L 10 10 z" /> 
	</marker> </defs>
<g>
<path style="stroke:none; fill:#000000" d="M 158.9 23.4C 158.4 22.9 157.9 22.5 157.3 22.1C 156.2 21.6 155.1 21.1 153.9 20.7C 153 20.3 152 20 151 19.7C 149.8 19.6 148.8 19.4 147.7 19.3C 146.5 19.3 145.3 19.4 144.2 19.5C 143.1 19.7 142 20 140.9 20.3C 139.8 20.6 138.8 21 137.8 21.4C 136.9 22 136.1 22.5 135.3 23.2C 134.6 23.8 133.9 24.4 133.3 25.2C 132.6 26.2 131.8 27.2 131.2 28.4C 130.8 29 130.5 29.7 130.2 30.5L 128.7 30.5C 128.3 29.5 128 28.5 127.5 27.5C 127.3 27.2 127.2 27 127 26.7C 126.8 26.5 126.6 26.2 126.3 25.9C 126.3 25.9 126.2 25.8 126.2 25.7C 125.7 25.1 125.2 24.5 124.8 23.9C 123.1 22.5 121.2 21.2 119.3 20.2C 118.1 19.4 116.7 19 115.3 18.9C 113.7 18.6 112.1 18.7 110.6 19.1C 107.5 19.8 104.6 20.9 101.8 22.3C 100.7 22.9 99.8 23.7 99 24.8C 98.4 25.7 97.9 26.6 97.5 27.7C 97.4 28.1 97.3 28.6 97.3 29.1L 124.1 34.1L 111.9 34.1L 111.9 39.6L 94.2 39.6C 88.1 40.2 82 41.7 76.1 44.1L 66.2 48.1L 57 54.3C 54.2 56.2 51.8 58.5 49.6 61C 47.8 63.2 46.1 65.6 44.6 68.1C 43.5 69.9 42.7 71.7 42.2 73.8L 39.2 85.8L 39.3 89.5L 63.8 89.5C 65.3 85.8 66.7 83.2 67.9 81.7C 70.4 78.6 73.5 75.8 77.3 73.1C 81 70.5 86.4 68.6 93.4 67.6C 99.4 66.7 106.2 66.8 113.6 67.8L 113.9 91.8L 149.8 91.8L 149.8 34L 137.7 34L 161.4 29.2C 161.8 27.9 161.8 26.9 161.4 26.2C 160.6 25.2 159.8 24.3 158.9 23.4z"/>
</g>
<g>
<path style="stroke:#000000; stroke-width:4.0; stroke-linejoin:round; stroke-linecap:round; fill:none" d="M 215 2C 144 2 73 2 2 2L 2 108L 215 108L 215 2"/>
</g>
</svg>
