<?xml version="1.0" encoding="ISO-8859-1" standalone="yes"?>
<svg width="216.1" height="109.6" xmlns="http://www.w3.org/2000/svg">
  <defs> 
	<marker id="ArrowEnd" viewBox="0 0 10 10" refX="0" refY="5" 
		markerUnits="strokeWidth" 
		markerWidth="4" 
		markerHeight="3" 
		orient="auto"> 
		<path d="M 0 0 L 10 5 L 0 10 z" /> 
	</marker>
	<marker id="ArrowStart" viewBox="0 0 10 10" refX="10" refY="5" 
		markerUnits="strokeWidth" 
		markerWidth="4" 
		markerHeight="3" 
		orient="auto"> 
		<path d="M 10 0 L 0 5 L 10 10 z" /> 
	</marker> </defs>
<g>
<g>
<path style="stroke:none; fill:#000000" d="M 37.7 14.5C 36.4 13.2 34.9 12.6 33.1 12.6C 31.2 12.6 29.7 13.2 28.5 14.5C 27.2 15.7 26.6 17.3 26.6 19.1C 26.6 20.9 27.2 22.5 28.5 23.7C 29.7 25 31.2 25.6 33.1 25.6C 34.9 25.6 36.4 25 37.7 23.7C 38.9 22.5 39.6 20.9 39.6 19.1C 39.6 17.3 38.9 15.7 37.7 14.5z"/>
<path style="stroke:none; fill:#000000" d="M 33.3 46.8C 31.4 46.8 29.9 47.5 28.7 48.7C 27.4 50 26.8 51.5 26.8 53.3C 26.8 55.2 27.4 56.7 28.7 58C 29.9 59.2 31.4 59.8 33.3 59.8C 35.1 59.8 36.6 59.2 37.9 58C 39.1 56.7 39.8 55.2 39.8 53.3C 39.8 51.5 39.1 50 37.9 48.7C 36.6 47.5 35.1 46.8 33.3 46.8z"/>
<path style="stroke:none; fill:#000000" d="M 37.4 91C 38.6 89.7 39.3 88.2 39.3 86.3C 39.3 84.5 38.6 83 37.4 81.7C 36.1 80.5 34.6 79.8 32.8 79.8C 30.9 79.8 29.4 80.5 28.2 81.7C 26.9 83 26.3 84.5 26.3 86.3C 26.3 88.2 26.9 89.7 28.2 91C 29.4 92.2 30.9 92.8 32.8 92.8C 34.6 92.8 36.1 92.2 37.4 91z"/>
<path style="stroke:#000000; stroke-width:4.0; stroke-linejoin:round; stroke-linecap:round; fill:none" d="M 214.1 2L 2 2L 2 107.6L 214.1 107.6L 214.1 2"/>
</g>
</g>
</svg>
