<?xml version="1.0" encoding="ISO-8859-1" standalone="yes"?>
<svg width="217" height="110" xmlns="http://www.w3.org/2000/svg">
  <defs> 
	<marker id="ArrowEnd" viewBox="0 0 10 10" refX="0" refY="5" 
		markerUnits="strokeWidth" 
		markerWidth="4" 
		markerHeight="3" 
		orient="auto"> 
		<path d="M 0 0 L 10 5 L 0 10 z" /> 
	</marker>
	<marker id="ArrowStart" viewBox="0 0 10 10" refX="10" refY="5" 
		markerUnits="strokeWidth" 
		markerWidth="4" 
		markerHeight="3" 
		orient="auto"> 
		<path d="M 10 0 L 0 5 L 10 10 z" /> 
	</marker> </defs>
<g>
<g>
<path style="stroke:#000000; stroke-width:4.0; stroke-linejoin:round; stroke-linecap:round; fill:none" d="M 59.3 75.9L 98.3 51.4"/>
<path style="stroke:#000000; stroke-width:4.0; stroke-linejoin:round; stroke-linecap:round; fill:none" d="M 97.7 43.8L 57.6 32.6"/>
<path style="stroke:#000000; stroke-width:4.0; stroke-linejoin:round; stroke-linecap:round; fill:none" d="M 119.5 50.7L 163.9 67.8"/>
<path style="stroke:#000000; stroke-width:4.0; stroke-linejoin:round; stroke-linecap:round; fill:none" d="M 215 2C 144 2 73 2 2 2L 2 108L 215 108L 215 2"/>
</g>
</g>
<g>
<g>
<path style="stroke:none; fill:#000000" d="M 186.1 71.8C 186.1 68.7 185 66 182.7 63.7C 180.5 61.5 177.8 60.4 174.7 60.4C 171.5 60.4 168.8 61.5 166.6 63.7C 165.4 64.9 164.5 66.2 164 67.7C 163.5 69 163.2 70.4 163.3 71.8C 163.2 75 164.3 77.7 166.6 79.9C 168.8 82.1 171.5 83.2 174.7 83.2C 177.8 83.2 180.5 82.1 182.7 79.9C 185 77.7 186.1 75 186.1 71.8z"/>
<path style="stroke:none; fill:#000000" d="M 120.3 46.7C 120.3 43.5 119.2 40.8 116.9 38.6C 114.7 36.4 112 35.3 108.9 35.3C 105.7 35.3 103 36.4 100.8 38.6C 99.6 39.8 98.7 41.1 98.2 42.5C 98 42.9 97.9 43.3 97.8 43.7C 97.6 44.6 97.4 45.6 97.5 46.7C 97.4 48.3 97.7 49.9 98.4 51.3C 98.9 52.5 99.7 53.7 100.8 54.7C 103 57 105.7 58.1 108.9 58.1C 112 58.1 114.7 57 116.9 54.7C 118.2 53.5 119.1 52.1 119.6 50.5C 120.1 49.3 120.3 48 120.3 46.7z"/>
<path style="stroke:none; fill:#000000" d="M 54.7 37.4C 56.2 36 57.2 34.3 57.7 32.4C 57.9 31.4 58.1 30.4 58.1 29.3C 58.1 26.2 57 23.5 54.7 21.2C 52.5 19 49.8 17.9 46.7 17.9C 43.5 17.9 40.8 19 38.6 21.2C 37.4 22.4 36.5 23.7 36 25.2C 35.5 26.5 35.2 27.9 35.3 29.3C 35.2 32.5 36.3 35.2 38.6 37.4C 40.8 39.6 43.5 40.7 46.7 40.7C 49.8 40.7 52.5 39.6 54.7 37.4z"/>
<path style="stroke:none; fill:#000000" d="M 39 77.7C 38.5 79 38.2 80.4 38.3 81.8C 38.2 85 39.3 87.7 41.6 89.9C 43.8 92.1 46.5 93.2 49.7 93.2C 52.8 93.2 55.5 92.1 57.7 89.9C 60 87.7 61.1 85 61.1 81.8C 61.1 79.6 60.5 77.5 59.4 75.8C 58.9 75 58.4 74.4 57.7 73.7C 55.5 71.5 52.8 70.4 49.7 70.4C 46.5 70.4 43.8 71.5 41.6 73.7C 40.4 74.9 39.5 76.2 39 77.7z"/>
</g>
</g>
</svg>
